<?xml version="1.0" encoding="UTF-8"?>
<svg xmlns="http://www.w3.org/2000/svg" width="76" height="76" viewBox="0 0 76 76" fill="none">
  <circle cx="38" cy="38" r="37.5" stroke="#F3921A"></circle>
  <path d="M30.7998 24.8L53.5998 24.8" stroke="#8A8E8F" stroke-width="2.4" stroke-linecap="round"></path>
  <path d="M30.7998 33.2L53.5998 33.2" stroke="#8A8E8F" stroke-width="2.4" stroke-linecap="round"></path>
  <path d="M30.7998 41.5999L53.5998 41.5999" stroke="#8A8E8F" stroke-width="2.4" stroke-linecap="round"></path>
  <path d="M30.7998 50L53.5998 50" stroke="#8A8E8F" stroke-width="2.4" stroke-linecap="round"></path>
  <path d="M23.6 22.4C22.2745 22.4 21.2 23.4745 21.2 24.8C21.2 26.1254 22.2745 27.2 23.6 27.2C24.9255 27.2 26 26.1254 26 24.8C26 23.4745 24.9255 22.4 23.6 22.4Z" fill="#333333"></path>
  <path d="M23.6 30.7999C22.2745 30.7999 21.2 31.8744 21.2 33.1999C21.2 34.5253 22.2745 35.5999 23.6 35.5999C24.9255 35.5999 26 34.5253 26 33.1999C26 31.8744 24.9255 30.7999 23.6 30.7999Z" fill="#333333"></path>
  <path d="M23.6 39.2C22.2745 39.2 21.2 40.2745 21.2 41.6C21.2 42.9255 22.2745 44 23.6 44C24.9255 44 26 42.9255 26 41.6C26 40.2745 24.9255 39.2 23.6 39.2Z" fill="#333333"></path>
  <path d="M23.6 47.5999C22.2745 47.5999 21.2 48.6744 21.2 49.9999C21.2 51.3254 22.2745 52.3999 23.6 52.3999C24.9255 52.3999 26 51.3254 26 49.9999C26 48.6744 24.9255 47.5999 23.6 47.5999Z" fill="#333333"></path>
</svg>
