<?xml version="1.0" encoding="UTF-8"?>
<svg xmlns="http://www.w3.org/2000/svg" width="76" height="76" viewBox="0 0 76 76" fill="none">
  <path d="M38.5 28.96L38.5 17.98" stroke="#8A8E8F" stroke-width="1.22" stroke-linecap="round"></path>
  <path d="M38.5 37.5L38.5 48.48" stroke="#8A8E8F" stroke-width="1.22" stroke-linecap="round"></path>
  <path d="M34.8399 17.9799C34.8399 15.9585 36.4785 14.3199 38.4999 14.3199C40.5213 14.3199 42.1599 15.9585 42.1599 17.9799C42.1599 20.0013 40.5213 21.6399 38.4999 21.6399C36.4785 21.6399 34.8399 20.0013 34.8399 17.9799Z" fill="#333333"></path>
  <path d="M42.1601 55.7999C42.1601 57.8213 40.5215 59.4599 38.5001 59.4599C36.4787 59.4599 34.8401 57.8213 34.8401 55.7999C34.8401 53.7785 36.4787 52.1399 38.5001 52.1399C40.5215 52.1399 42.1601 53.7785 42.1601 55.7999Z" fill="#333333"></path>
  <path d="M31.104 41.77L21.595 47.26" stroke="#8A8E8F" stroke-width="1.22" stroke-linecap="round"></path>
  <path d="M38.5 37.5L48.009 32.01" stroke="#8A8E8F" stroke-width="1.22" stroke-linecap="round"></path>
  <path d="M24.5897 49.3292C22.8392 50.3399 20.6007 49.7401 19.5901 47.9896C18.5794 46.239 19.1792 44.0006 20.9297 42.9899C22.6803 41.9792 24.9187 42.579 25.9294 44.3296C26.94 46.0801 26.3403 48.3185 24.5897 49.3292Z" fill="#333333"></path>
  <path d="M52.6495 25.91C54.4001 24.8994 56.6385 25.4991 57.6492 27.2497C58.6599 29.0002 58.0601 31.2387 56.3095 32.2493C54.559 33.26 52.3206 32.6602 51.3099 30.9097C50.2992 29.1591 50.899 26.9207 52.6495 25.91Z" fill="#333333"></path>
  <path d="M45.8958 41.77L55.4047 47.26" stroke="#8A8E8F" stroke-width="1.22" stroke-linecap="round"></path>
  <path d="M38.5 37.5L28.991 32.01" stroke="#8A8E8F" stroke-width="1.22" stroke-linecap="round"></path>
  <path d="M52.6495 49.3292C54.4001 50.3399 56.6385 49.7401 57.6492 47.9896C58.6599 46.239 58.0601 44.0006 56.3095 42.9899C54.559 41.9792 52.3206 42.579 51.3099 44.3296C50.2992 46.0801 50.899 48.3185 52.6495 49.3292Z" fill="#333333"></path>
  <path d="M24.5897 25.91C22.8392 24.8994 20.6007 25.4991 19.5901 27.2497C18.5794 29.0002 19.1792 31.2387 20.9297 32.2493C22.6803 33.26 24.9187 32.6602 25.9294 30.9097C26.94 29.1591 26.3403 26.9207 24.5897 25.91Z" fill="#333333"></path>
  <circle cx="38.4999" cy="37.4999" r="6.1" fill="#F3921A"></circle>
  <circle cx="38" cy="38" r="37.5" stroke="#F3921A"></circle>
</svg>
