<?xml version="1.0" encoding="UTF-8"?>
<svg xmlns="http://www.w3.org/2000/svg" width="76" height="76" viewBox="0 0 76 76" fill="none">
  <path d="M53.9002 47.1797C55.0408 45.2042 55.7725 43.1049 56.1216 40.9797C56.5467 38.392 56.4046 35.766 55.7426 33.2784C55.1241 30.9543 54.0519 28.7511 52.5646 26.8131M28.82 53.8999C31.154 55.2474 33.6609 56.0242 36.179 56.2737C38.66 56.5194 41.1518 56.2532 43.5002 55.5166C45.7189 54.8205 47.8095 53.7045 49.6416 52.2034M22.0998 28.8197C20.7539 31.1508 19.9773 33.6545 19.7269 36.1696C19.5046 38.4023 19.697 40.6441 20.2739 42.7823C20.8948 45.0838 21.9612 47.2653 23.4354 49.1862M47.18 22.0994C44.6622 20.6458 41.9432 19.8562 39.2258 19.6765C36.7004 19.5095 34.1764 19.8691 31.8166 20.7118C29.852 21.4134 28.0013 22.4499 26.3584 23.7959" stroke="#333333" stroke-width="1.44" stroke-linecap="round"></path>
  <path d="M43.6893 23.8258L47.6476 22.3699L46.9293 18.2139" stroke="#333333" stroke-width="1.44" stroke-linecap="round"></path>
  <path d="M31.8429 51.9042L27.8846 53.3601L28.6029 57.516" stroke="#333333" stroke-width="1.44" stroke-linecap="round"></path>
  <path d="M52.1742 43.6891L53.6301 47.6473L57.7861 46.9291" stroke="#333333" stroke-width="1.44" stroke-linecap="round"></path>
  <path d="M24.0958 31.8432L22.6399 27.8849L18.484 28.6032" stroke="#333333" stroke-width="1.44" stroke-linecap="round"></path>
  <circle cx="38" cy="38" r="37.5" stroke="#F3921A"></circle>
</svg>
