<svg width="126" height="126" viewBox="0 0 126 126" fill="none" xmlns="http://www.w3.org/2000/svg">
<path d="M87.9185 28.9805H33.3982C30.9593 28.9805 28.98 31.4749 28.98 34.5485V85.1525C28.98 88.226 30.9593 90.7205 33.3982 90.7205H70.776M86.3191 28.9805H92.6018C95.0406 28.9805 97.02 31.4749 97.02 34.5485V85.1525C97.02 88.226 95.0406 90.7205 92.6018 90.7205H90.702" stroke="#333333" stroke-width="2.52" stroke-linecap="round" stroke-linejoin="round"/>
<circle cx="90.09" cy="35.9095" r="1.89" fill="#F3921A"/>
<circle cx="83.7899" cy="35.9095" r="1.89" fill="#333333"/>
<circle cx="77.4901" cy="35.9095" r="1.89" fill="#8A8E8F"/>
<path d="M78.1201 84.4199L93.2401 99.0094L86.9401 100.336L90.7201 107.63L86.9401 109.62L83.1601 101.662L78.1201 105.641V84.4199Z" stroke="#F3921A" stroke-width="2.52" stroke-linejoin="round"/>
<path d="M63.4043 41.5801C59.4972 41.5801 55.6778 42.7387 52.4292 44.9093C49.1806 47.08 46.6486 50.1652 45.1534 53.7749C43.6582 57.3846 43.267 61.3566 44.0292 65.1886C44.7915 69.0206 46.6729 72.5406 49.4357 75.3033C52.1984 78.0661 55.7183 79.9475 59.5503 80.7097C63.3824 81.472 67.3544 81.0808 70.964 79.5856C74.5737 78.0904 77.659 75.5584 79.8296 72.3098C82.0003 69.0611 83.1589 65.2418 83.1589 61.3347C83.1527 56.0973 81.0695 51.0762 77.3661 47.3729C73.6627 43.6695 68.6416 41.5862 63.4043 41.5801ZM79.2022 53.9751H71.4204C70.5736 50.4627 69.0291 47.1563 66.8788 44.2528C69.5483 44.8013 72.0526 45.9661 74.1922 47.6541C76.3318 49.342 78.0474 51.5066 79.2022 53.9751ZM80.8348 61.3347C80.8361 63.0405 80.5862 64.7372 80.0931 66.3702H71.8988C72.4514 63.0359 72.4514 59.6335 71.8988 56.2992H80.0931C80.5862 57.9322 80.8361 59.6289 80.8348 61.3347ZM63.4043 78.7652C63.356 78.7655 63.3082 78.7554 63.2641 78.7357C63.22 78.716 63.1806 78.6871 63.1486 78.651C60.6541 75.9647 58.822 72.5154 57.7878 68.6943H69.0208C67.9866 72.5154 66.1544 75.9647 63.6599 78.651C63.6279 78.6871 63.5886 78.716 63.5445 78.7357C63.5004 78.7554 63.4526 78.7655 63.4043 78.7652ZM57.2668 66.3702C56.6703 63.0397 56.6703 59.6297 57.2668 56.2992H69.5418C70.1383 59.6297 70.1383 63.0397 69.5418 66.3702H57.2668ZM45.9737 61.3347C45.9724 59.6289 46.2224 57.9322 46.7155 56.2992H54.9098C54.3571 59.6335 54.3571 63.0359 54.9098 66.3702H46.7155C46.2224 64.7372 45.9724 63.0405 45.9737 61.3347ZM63.4043 43.9042C63.4526 43.9039 63.5004 43.9139 63.5445 43.9336C63.5886 43.9534 63.6279 43.9823 63.6599 44.0184C66.1544 46.7047 67.9866 50.154 69.0208 53.9751H57.7878C58.822 50.154 60.6541 46.7047 63.1486 44.0184C63.1806 43.9823 63.22 43.9534 63.2641 43.9336C63.3082 43.9139 63.356 43.9039 63.4043 43.9042ZM59.9298 44.2528C57.7795 47.1563 56.235 50.4627 55.3882 53.9751H47.6064C48.7612 51.5066 50.4768 49.342 52.6163 47.6541C54.7559 45.9661 57.2603 44.8013 59.9298 44.2528ZM47.6064 68.6943H55.3882C56.235 72.2067 57.7795 75.5131 59.9298 78.4166C57.2603 77.868 54.7559 76.7033 52.6163 75.0153C50.4768 73.3273 48.7612 71.1628 47.6064 68.6943ZM66.8788 78.4166C69.0291 75.5131 70.5736 72.2067 71.4204 68.6943H79.2022C78.0474 71.1628 76.3318 73.3273 74.1922 75.0153C72.0526 76.7033 69.5483 77.868 66.8788 78.4166Z" fill="#F3921A"/>
</svg>
