<?xml version="1.0" encoding="UTF-8"?>
<svg xmlns="http://www.w3.org/2000/svg" width="100" height="100" viewBox="0 0 100 100" fill="none">
  <path fill-rule="evenodd" clip-rule="evenodd" d="M49.96 44.1085C49.98 44.2285 49.99 44.3485 49.99 44.4785V70.4785C49.99 71.5785 49.09 72.4785 47.99 72.4785H30.99C29.89 72.4785 28.99 71.5785 28.99 70.4785V44.4785C28.99 43.3785 29.89 42.4785 30.99 42.4785H34.92L36.07 40.4785H30.98C28.77 40.4785 26.98 42.2685 26.98 44.4785V70.4785C26.98 72.6885 28.77 74.4785 30.98 74.4785H47.98C50.19 74.4785 51.98 72.6885 51.98 70.4785V44.4785C51.98 43.5585 51.67 42.7085 51.15 42.0285L49.95 44.1085H49.96Z" fill="#333333"></path>
  <path d="M56.1099 18.3486L78.8499 31.4786C79.6799 31.9586 79.9599 33.0186 79.4899 33.8486C79.0099 34.6786 77.9499 34.9586 77.1199 34.4886L54.3799 21.3586C53.5499 20.8786 53.2699 19.8186 53.7399 18.9886C54.2199 18.1586 55.2799 17.8786 56.1099 18.3486Z" stroke="#8A8E8F" stroke-width="2"></path>
  <path fill-rule="evenodd" clip-rule="evenodd" d="M70.11 31.5985L68 32.8185C67.38 33.1785 67 33.8385 67 34.5485V44.6985C67 45.4085 67.38 46.0685 68 46.4285L71.39 48.3885C72.72 49.1585 74.39 48.1985 74.39 46.6585V43.0285C74.39 41.1485 75.91 39.6285 77.79 39.6285C79.67 39.6285 81.19 41.1485 81.19 43.0285V46.6585C81.19 48.1985 82.86 49.1585 84.19 48.3885L87.58 46.4285C88.2 46.0685 88.58 45.4085 88.58 44.6985V34.5485C88.58 33.8385 88.2 33.1785 87.58 32.8185L78.79 27.7485C78.17 27.3885 77.41 27.3885 76.79 27.7485L75.58 28.4485L77.58 29.5985L77.79 29.4785L86.58 34.5485V44.6985L83.19 46.6585V43.0285C83.19 40.0485 80.77 37.6285 77.79 37.6285C74.81 37.6285 72.39 40.0485 72.39 43.0285V46.6585L69 44.6985V34.5485L72.11 32.7485L70.11 31.5985Z" fill="#F3921A"></path>
  <path fill-rule="evenodd" clip-rule="evenodd" d="M35.1899 46.0186L51.0999 18.4586C52.4599 16.1086 55.4699 15.2986 57.8199 16.6586C58.9399 17.3086 59.7099 18.3286 60.0599 19.4686L62.2799 20.7486C62.2199 18.4186 60.9899 16.1786 58.8199 14.9286C55.5099 13.0186 51.2799 14.1486 49.3699 17.4586L33.4599 45.0186C31.5499 48.3286 32.6799 52.5586 35.9899 54.4686C39.2999 56.3786 43.5299 55.2486 45.4399 51.9386L60.4199 25.9986L58.6899 24.9986L43.7099 50.9386C42.3499 53.2886 39.3399 54.0986 36.9899 52.7386C34.6399 51.3786 33.8299 48.3686 35.1899 46.0186Z" fill="#8A8E8F"></path>
  <path d="M40.6086 46.7179C39.7764 46.2374 38.7133 46.5206 38.2342 47.3505C37.7551 48.1803 38.0414 49.2425 38.8736 49.723L38.8909 49.733C39.7231 50.2135 40.7862 49.9303 41.2653 49.1005C41.7444 48.2706 41.4581 47.2084 40.6259 46.7279L40.6086 46.7179Z" stroke="#F3921A" stroke-width="2"></path>
  <path d="M23 79.4785C23 78.3785 23.9 77.4785 25 77.4785H54C55.1 77.4785 56 78.3785 56 79.4785C56 80.5785 55.1 81.4785 54 81.4785H25C23.9 81.4785 23 80.5785 23 79.4785Z" stroke="#8A8E8F" stroke-width="2"></path>
  <path d="M68 64.2485L78 70.0185V81.5685L68 75.7885V64.2485Z" stroke="#F3921A" stroke-width="2" stroke-linejoin="round"></path>
  <path d="M78 70.0185L88 64.2485V75.7885L78 81.5685V70.0185Z" stroke="#F3921A" stroke-width="2" stroke-linejoin="round"></path>
  <path d="M68 64.2485L78 58.4785L88 64.2485L78 70.0185L68 64.2485Z" stroke="#F3921A" stroke-width="2" stroke-linejoin="round"></path>
  <path d="M33 65.4785H46" stroke="#F3921A" stroke-width="2" stroke-linecap="round"></path>
  <path d="M8 80.9785H13.5C14.6 80.9785 15.5 80.0785 15.5 78.9785V72.4785C15.5 71.3785 16.4 70.4785 17.5 70.4785H27" stroke="#333333" stroke-width="2" stroke-linecap="round"></path>
</svg>
