<?xml version="1.0" encoding="UTF-8"?>
<svg xmlns="http://www.w3.org/2000/svg" width="99" height="99" viewBox="0 0 99 99" fill="none">
  <circle cx="49.5" cy="49.5" r="49" transform="rotate(-90 49.5 49.5)" fill="white" stroke="#FFB13C"></circle>
  <path d="M33.8174 40.5346L33.3196 39.9162C33.1324 40.0669 33.0235 40.2943 33.0235 40.5346H33.8174ZM65.5733 40.5346H66.3672C66.3672 40.3011 66.2644 40.0794 66.0862 39.9286L65.5733 40.5346ZM65.5733 65.5424V66.3363C66.0118 66.3363 66.3672 65.9809 66.3672 65.5424H65.5733ZM33.8174 65.5424H33.0235C33.0235 65.9809 33.3789 66.3363 33.8174 66.3363V65.5424ZM50.0923 27.4353L50.6051 26.8293C50.3147 26.5835 49.8909 26.5783 49.5945 26.8168L50.0923 27.4353ZM64.7794 40.5346V65.5424H66.3672V40.5346H64.7794ZM65.5733 64.7486H33.8174V66.3363H65.5733V64.7486ZM34.6113 65.5424V40.5346H33.0235V65.5424H34.6113ZM34.3152 41.1531L50.5901 28.0538L49.5945 26.8168L33.3196 39.9162L34.3152 41.1531ZM49.5795 28.0414L65.0605 41.1407L66.0862 39.9286L50.6051 26.8293L49.5795 28.0414Z" fill="#8A8E8F"></path>
  <path d="M29.4502 40.1375L36.5953 34.1832V25.0534H40.5648V31.0076L44.6335 27.832L50.0916 23.4656L69.5421 40.1375" stroke="#333333" stroke-width="1.5878" stroke-linecap="round" stroke-linejoin="round"></path>
  <rect x="44.9307" y="43.3132" width="9.52679" height="12.7024" stroke="#F3921A" stroke-width="1.5878" stroke-linejoin="round"></rect>
</svg>
