<?xml version="1.0" encoding="UTF-8"?>
<svg xmlns="http://www.w3.org/2000/svg" width="99" height="99" viewBox="0 0 99 99" fill="none">
  <circle cx="49.5" cy="49.5" r="49" transform="rotate(-90 49.5 49.5)" fill="white" stroke="#FFB13C"></circle>
  <path d="M55.3995 21.2109L71.7723 30.6645C72.3699 31.0101 72.5715 31.7733 72.2331 32.3709C71.8875 32.9685 71.1243 33.1701 70.5267 32.8317L54.1539 23.3781C53.5563 23.0325 53.3547 22.2693 53.6931 21.6717C54.0387 21.0741 54.8019 20.8725 55.3995 21.2109Z" stroke="#8A8E8F" stroke-width="1.44"></path>
  <path fill-rule="evenodd" clip-rule="evenodd" d="M50.9714 39.7581C50.9858 39.8445 50.993 39.9309 50.993 40.0245V58.7445C50.993 59.5365 50.345 60.1845 49.553 60.1845H37.313C36.521 60.1845 35.873 59.5365 35.873 58.7445V40.0245C35.873 39.2325 36.521 38.5845 37.313 38.5845H40.1426L40.9706 37.1445H37.3058C35.7146 37.1445 34.4258 38.4333 34.4258 40.0245V58.7445C34.4258 60.3357 35.7146 61.6245 37.3058 61.6245H49.5458C51.137 61.6245 52.4258 60.3357 52.4258 58.7445V40.0245C52.4258 39.3621 52.2026 38.7501 51.8282 38.2605L50.9642 39.7581H50.9714Z" fill="#333333"></path>
  <path fill-rule="evenodd" clip-rule="evenodd" d="M65.4794 30.7508L63.9602 31.6292C63.5138 31.8884 63.2402 32.3636 63.2402 32.8748V40.1828C63.2402 40.694 63.5138 41.1692 63.9602 41.4284L66.401 42.8396C67.3586 43.394 68.561 42.7028 68.561 41.594V38.9804C68.561 37.6268 69.6554 36.5324 71.009 36.5324C72.3626 36.5324 73.457 37.6268 73.457 38.9804V41.594C73.457 42.7028 74.6594 43.394 75.617 42.8396L78.0578 41.4284C78.5042 41.1692 78.7778 40.694 78.7778 40.1828V32.8748C78.7778 32.3636 78.5042 31.8884 78.0578 31.6292L71.729 27.9788C71.2826 27.7196 70.7354 27.7196 70.289 27.9788L69.4178 28.4828L70.8578 29.3108L71.009 29.2244L77.3378 32.8748V40.1828L74.897 41.594V38.9804C74.897 36.8348 73.1546 35.0924 71.009 35.0924C68.8634 35.0924 67.121 36.8348 67.121 38.9804V41.594L64.6802 40.1828V32.8748L66.9194 31.5788L65.4794 30.7508Z" fill="#F3921A"></path>
  <path fill-rule="evenodd" clip-rule="evenodd" d="M40.3371 41.1335L51.7923 21.2903C52.7715 19.5983 54.9387 19.0151 56.6307 19.9943C57.4371 20.4623 57.9915 21.1967 58.2435 22.0175L59.8419 22.9391C59.7987 21.2615 58.9131 19.6487 57.3507 18.7487C54.9675 17.3735 51.9219 18.1871 50.5467 20.5703L39.0915 40.4135C37.7163 42.7967 38.5299 45.8423 40.9131 47.2175C43.2963 48.5927 46.3419 47.7791 47.7171 45.3959L58.5027 26.7191L57.2571 25.9991L46.4715 44.6759C45.4923 46.3679 43.3251 46.9511 41.6331 45.9719C39.9411 44.9927 39.3579 42.8255 40.3371 41.1335Z" fill="#8A8E8F"></path>
  <path d="M44.2375 41.637C43.6383 41.2911 42.8729 41.495 42.5279 42.0925C42.183 42.69 42.3891 43.4548 42.9883 43.8007L43.0007 43.8079C43.6 44.1539 44.3653 43.95 44.7103 43.3525C45.0553 42.755 44.8492 41.9902 44.2499 41.6442L44.2375 41.637Z" stroke="#F3921A" stroke-width="1.44"></path>
  <path d="M31.5596 65.2244C31.5596 64.4324 32.2076 63.7844 32.9996 63.7844H53.8796C54.6716 63.7844 55.3196 64.4324 55.3196 65.2244C55.3196 66.0164 54.6716 66.6644 53.8796 66.6644H32.9996C32.2076 66.6644 31.5596 66.0164 31.5596 65.2244Z" stroke="#8A8E8F" stroke-width="1.44"></path>
  <path d="M63.96 54.2588L71.16 58.4132V66.7292L63.96 62.5676V54.2588Z" stroke="#F3921A" stroke-width="1.44" stroke-linejoin="round"></path>
  <path d="M71.1602 58.4132L78.3602 54.2588V62.5676L71.1602 66.7292V58.4132Z" stroke="#F3921A" stroke-width="1.44" stroke-linejoin="round"></path>
  <path d="M63.96 54.2589L71.16 50.1045L78.36 54.2589L71.16 58.4133L63.96 54.2589Z" stroke="#F3921A" stroke-width="1.44" stroke-linejoin="round"></path>
  <path d="M38.7598 55.1445H48.1198" stroke="#F3921A" stroke-width="1.44" stroke-linecap="round"></path>
  <path d="M20.7598 66.3046H24.7198C25.5118 66.3046 26.1598 65.6566 26.1598 64.8646V60.1846C26.1598 59.3926 26.8078 58.7446 27.5998 58.7446H34.4398" stroke="#333333" stroke-width="1.44" stroke-linecap="round"></path>
</svg>
