<?xml version="1.0" encoding="UTF-8"?>
<svg xmlns="http://www.w3.org/2000/svg" width="105" height="105" viewBox="0 0 105 105" fill="none">
  <g clip-path="url(#clip0_74_707)">
    <path d="M100.277 31.0347L73.9388 4.70119C71.0494 1.81234 66.0474 0 61.5634 0C60.3027 0 59.0828 0.149893 57.9721 0.442865L21.8885 10.145C16.8116 11.5145 11.5166 16.7744 10.181 21.8503L0.442853 58.0018C-0.92689 63.0777 1.00165 70.2248 4.702 73.9653L31.0406 100.299C33.93 103.188 38.966 105 43.4501 105C44.7108 105 45.9306 104.85 47.0414 104.557L83.084 94.855C88.1609 93.4855 93.4559 88.2256 94.7916 83.1497L104.537 46.9982C105.947 41.9223 104.019 34.7411 100.277 31.0347Z" fill="#F79331"></path>
    <path d="M50.708 55.2219C49.6313 50.4458 45.2972 46.8484 40.1521 46.8484H38.6325V22.1433H35.5591V52.9599H41.9648C45.0383 52.9599 48.0367 53.7366 50.708 55.2219Z" fill="black"></path>
    <path d="M50.9739 48.9264V26.7423C50.9739 21.3325 46.9328 16.8902 41.6787 16.1476V43.8914C45.4199 44.3002 48.7182 46.1875 50.9739 48.9264Z" fill="white"></path>
    <path d="M72.4943 56.0395H63.0492C57.5293 56.0395 54.231 58.9624 53.9721 59.1123H51.0827C50.8237 58.9624 47.5254 56.0395 42.0056 56.0395H32.4855V28.2957H29.4121V59.1123H41.9306C44.929 59.1123 47.7435 60.1888 49.931 62.1851H55.042C57.2295 60.2229 60.0439 59.1123 63.0424 59.1123H75.5609V37.2211H72.4875V56.0327L72.4943 56.0395Z" fill="white"></path>
    <path d="M61.9385 50.8546C61.7886 50.8887 61.5706 50.8546 61.4547 50.7456L60.8278 50.1187C60.7187 50.0097 60.6438 49.7849 60.7187 49.635L60.9436 48.7833C60.9777 48.6334 61.1276 48.4904 61.2775 48.4495L62.1294 48.2246C62.2793 48.1906 62.4973 48.2246 62.6132 48.3337L63.2401 48.9605C63.3492 49.0695 63.4241 49.2943 63.3492 49.4442L63.1243 50.2959C63.0902 50.4458 62.9403 50.5889 62.7904 50.6297L61.9385 50.8546Z" fill="black"></path>
    <path d="M64.1937 26.0337C63.6008 26.1836 62.749 25.9587 62.3401 25.5499L59.9345 23.1448C59.4916 22.702 59.2667 21.8844 59.4507 21.2916L60.3366 18.0348C60.4865 17.4421 61.1135 16.8493 61.7063 16.6654L64.9637 15.7796C65.5566 15.6297 66.4084 15.8546 66.8173 16.2634L69.2229 18.6685C69.6658 19.1113 69.8907 19.9289 69.7067 20.5217L68.8208 23.7785C68.6709 24.3712 68.044 24.964 67.4511 25.1479L64.1937 26.0337Z" fill="white"></path>
    <path d="M67.9761 34.3732C67.6081 34.4822 67.0902 34.3391 66.7904 34.0393L65.2707 32.5199C65.0118 32.261 64.8618 31.7023 64.9368 31.3344L65.4956 29.2632C65.6046 28.8953 65.9794 28.4865 66.3474 28.4115L68.4191 27.8528C68.7871 27.7438 69.305 27.8869 69.6048 28.1867L71.1245 29.706C71.3834 29.9649 71.5334 30.5236 71.4584 30.8916L70.8996 32.9628C70.7906 33.3307 70.4158 33.7395 70.0478 33.8145L67.9761 34.3732Z" fill="white"></path>
    <path d="M65.8976 45.4789C65.6727 45.5538 65.3388 45.4448 65.1957 45.2949L64.2689 44.3683C64.0849 44.1843 64.01 43.8846 64.0849 43.6665L64.4189 42.4061C64.4938 42.1812 64.7119 41.9223 64.9368 41.8883L66.1975 41.5544C66.4224 41.4795 66.7563 41.5885 66.8994 41.7384L67.8262 42.665C68.0102 42.8489 68.0851 43.1487 68.0102 43.3667L67.6763 44.6272C67.6013 44.852 67.3832 45.111 67.1583 45.145L65.8976 45.4789Z" fill="white"></path>
    <path d="M57.1545 48.2587C56.9296 48.3337 56.5957 48.2247 56.4526 48.0748L55.5258 47.1481C55.3418 46.9642 55.2668 46.6644 55.3418 46.4464L55.6757 45.1859C55.7506 44.9611 55.9687 44.7022 56.1936 44.6681L57.4543 44.3342C57.6792 44.2593 58.0131 44.3683 58.1562 44.5182L59.083 45.4448C59.267 45.6288 59.342 45.9286 59.267 46.1466L58.9331 47.4071C58.8581 47.6319 58.6401 47.8908 58.4152 47.9249L57.1545 48.2587Z" fill="white"></path>
    <path d="M57.5635 31.1505C57.2704 31.2254 56.8616 31.1164 56.6367 30.8916L55.4509 29.706C55.226 29.4812 55.117 29.0792 55.192 28.7794L55.6349 27.151C55.7099 26.8581 56.0029 26.5583 56.3028 26.4833L57.9315 26.0405C58.2245 25.9655 58.6334 26.0745 58.8583 26.2994L60.044 27.4849C60.2689 27.7097 60.3779 28.1117 60.303 28.4115L59.86 30.0399C59.785 30.3329 59.492 30.6327 59.1922 30.7076L57.5635 31.1505Z" fill="black"></path>
    <path d="M59.6759 40.8867C59.233 40.9957 58.6401 40.8526 58.3403 40.5188L56.6025 38.7814C56.3095 38.4884 56.1187 37.8548 56.2345 37.446L56.8615 35.0749C56.9705 34.6321 57.4203 34.2233 57.8633 34.0734L60.2347 33.4466C60.6777 33.3375 61.2706 33.4806 61.5704 33.8145L63.3081 35.5519C63.6012 35.8448 63.792 36.4785 63.6761 36.8873L63.0492 39.2583C62.9402 39.7012 62.4904 40.11 62.0474 40.2599L59.6759 40.8867Z" fill="black"></path>
    <path d="M32.192 81.5895H27.892L27.0061 83.5926H25.8203L29.4525 75.5529H30.6042L34.2705 83.5926H33.0506L32.1988 81.5895H32.192ZM31.7831 80.6628L30.0454 76.7384L28.3077 80.6628H31.7899H31.7831Z" fill="black"></path>
    <path d="M36.9281 81.0376H35.6674V83.5926H34.5566V77.5219H35.6674V80.0769H36.9622L38.9248 77.5219H40.1106L37.814 80.4448L40.2946 83.5926H38.9998L36.9281 81.0376Z" fill="black"></path>
    <path d="M45.1534 79.927V83.5926H44.1175V82.775C43.7495 83.3337 43.0817 83.6607 42.114 83.6607C40.7443 83.6607 39.8516 82.9181 39.8516 81.8824C39.8516 80.9218 40.4785 80.1042 42.298 80.1042H44.0358V79.8793C44.0358 78.9527 43.477 78.4008 42.4071 78.4008C41.6643 78.4008 40.9624 78.6597 40.4785 79.0685L40.0356 78.2509C40.6625 77.7331 41.5893 77.4742 42.557 77.4742C44.2266 77.4742 45.1534 78.2509 45.1534 79.9202V79.927ZM44.0766 81.7393V80.8877H42.373C41.2963 80.8877 40.9623 81.2965 40.9623 81.8143C40.9623 82.4071 41.4803 82.8159 42.298 82.8159C43.1498 82.8159 43.7768 82.4479 44.0766 81.7393Z" fill="black"></path>
    <path d="M52.4176 82.6319V85.0029H51.3817V83.5926H46.6047V85.0029H45.5688V82.6319H45.9028C46.7887 82.5978 46.9386 81.1125 47.0135 79.5591L47.0885 77.4879H51.4976V82.5978H52.4244V82.6319H52.4176ZM47.2657 82.6319H50.38V78.4826H48.0494L47.9744 79.6681C47.9403 80.9286 47.8245 82.1482 47.2725 82.6319H47.2657Z" fill="black"></path>
    <path d="M58.4147 80.9286H53.4877C53.6377 82.0051 54.4895 82.7069 55.7093 82.7069C56.4112 82.7069 57.0041 82.448 57.447 81.9642L58.0399 82.666C57.4811 83.2928 56.6293 83.6676 55.6344 83.6676C53.6717 83.6676 52.377 82.373 52.377 80.5539C52.377 78.7347 53.6717 77.4402 55.4163 77.4402C57.1608 77.4402 58.4147 78.7006 58.4147 80.5879C58.4488 80.6969 58.4488 80.8128 58.4147 80.9218V80.9286ZM53.4877 80.1519H57.3789C57.2699 79.1163 56.493 78.4145 55.4163 78.4145C54.3396 78.4145 53.6036 79.1163 53.4877 80.1519Z" fill="black"></path>
    <path d="M66.272 77.5151V83.5858H65.2703V79.1435L63.0078 82.884H62.524L60.2615 79.1094V83.5517H59.2598V77.481H60.4114L62.817 81.5895L65.2635 77.481H66.2652V77.5151H66.272Z" fill="black"></path>
    <path d="M67.2329 77.5151H68.3437V81.9574L72.0849 77.5151H73.0867V83.5858H71.9759V79.1435L68.2687 83.5858H67.267V77.5151H67.2329Z" fill="black"></path>
    <path d="M79.1584 77.5151V83.5858H78.1566V81.6576H76.269L74.9333 83.5858H73.7476L75.2263 81.5145C74.2995 81.2556 73.8157 80.5879 73.8157 79.6272C73.8157 78.2169 74.8515 77.481 76.4802 77.481H79.1448V77.5151H79.1584ZM76.4939 80.8877H78.1975V78.4826H76.5688C75.5671 78.4826 74.9742 78.8505 74.9742 79.7022C74.9401 80.5198 75.458 80.8877 76.4939 80.8877Z" fill="black"></path>
    <path d="M47.6008 67.2201L47.4917 70.5518C47.4917 71.5125 47.3418 72.2211 47.1578 72.555C47.1578 72.555 46.8648 73.0387 45.938 72.9229L47.0488 75.253H47.2737C49.3862 75.253 49.9041 73.5838 50.0131 70.6609L50.0881 69.4413H51.8258V75.253H54.6403V67.2133H47.6008V67.2201Z" fill="white"></path>
    <path d="M60.3434 69.6661H58.6057V67.2202H56.0093V75.2599H60.0504C62.3128 75.2599 63.6417 74.1834 63.6417 72.4051C63.6417 70.6677 62.4559 69.6661 60.3434 69.6661ZM58.6397 71.4785H59.8595C60.8613 71.4785 60.9703 71.9213 60.9703 72.3642C60.9703 72.6572 60.8954 72.882 60.7114 73.066C60.5274 73.2159 60.2684 73.2908 59.8936 73.2908H58.6329V71.4785H58.6397Z" fill="white"></path>
    <path d="M67.717 68.7395H65.1206V75.2598H67.717V68.7395Z" fill="white"></path>
    <path d="M61.938 67.2202L63.0828 69.4413H69.7544L70.8992 67.2202H61.938Z" fill="white"></path>
    <path d="M42.3395 73.2567H37.9305L37.1127 75.2939H34.1143L38.7073 64.8832H41.5967L46.1898 75.2939H43.1164L42.3395 73.2567ZM41.4877 71.0697L40.152 67.738L38.8164 71.0697H41.4809H41.4877Z" fill="white"></path>
  </g>
  <defs>
    <clipPath id="clip0_74_707">
      <rect width="105" height="105" fill="white"></rect>
    </clipPath>
  </defs>
</svg>
