<?xml version="1.0" encoding="UTF-8"?>
<svg xmlns="http://www.w3.org/2000/svg" width="100" height="100" viewBox="0 0 100 100" fill="none">
  <path d="M62.8223 21.4303C63.9014 20.7276 65.1813 20.4014 66.4613 20.5268C67.7412 20.6523 68.9458 21.2044 69.8744 22.0954C70.803 22.9863 71.3927 24.1784 71.5558 25.4583C71.719 26.7382 71.4429 28.0307 70.7653 29.1224" stroke="#8A8E8F" stroke-width="2" stroke-linecap="round"></path>
  <path d="M49.0945 16.7249C49.998 15.1564 50.4497 14.3784 51.0645 13.9015C51.8802 13.2741 52.9217 12.9981 53.9381 13.1361C54.4024 13.1988 54.8792 13.3871 55.5317 13.7384C55.996 13.9894 56.523 14.1274 57.0626 14.1274C57.5896 14.1274 58.1167 13.9894 58.5809 13.7259C59.0452 13.4498 59.4217 13.0733 59.6852 12.6091C59.9487 12.1448 60.0993 11.6303 60.1118 11.0907C60.1369 10.3504 60.2122 9.84845 60.3879 9.40926C60.5887 8.93243 60.8647 8.50579 61.2286 8.14189C61.5925 7.778 62.0192 7.48939 62.496 7.30116C63.2112 7.00001 64.1147 7 65.9342 7C67.7537 7 68.6572 7.00001 69.3724 7.30116C69.8492 7.50194 70.2759 7.778 70.6398 8.14189C71.0037 8.50579 71.2923 8.93243 71.4805 9.40926C71.6562 9.84845 71.7315 10.3504 71.7566 11.0907C71.7566 11.6178 71.9197 12.1448 72.1832 12.6091C72.4467 13.0733 72.8357 13.4498 73.2875 13.7259C73.7518 13.9894 74.2788 14.1274 74.8058 14.1274C75.3328 14.1274 75.8599 14.0019 76.3241 13.7384C76.9767 13.3871 77.4535 13.1988 77.9178 13.1361C78.4197 13.0733 78.9342 13.0984 79.4361 13.2365C79.9255 13.3745 80.3898 13.6004 80.7913 13.9015C81.4062 14.3784 81.8579 15.1564 82.7614 16.7249C83.6649 18.2934 84.1166 19.084 84.217 19.8494C84.2797 20.3513 84.2546 20.8658 84.1166 21.3677C83.9786 21.8571 83.7527 22.3214 83.4515 22.7229C83.1629 23.0994 82.7614 23.4131 82.134 23.8021C81.2179 24.3793 80.6282 25.3581 80.6282 26.4498C80.6282 26.9768 80.7788 27.5038 81.0423 27.9681C81.3058 28.4324 81.6822 28.8214 82.134 29.0974C82.7614 29.4864 83.1629 29.8001 83.4515 30.1766C83.7652 30.5781 83.9911 31.0424 84.1166 31.5318C84.2546 32.0212 84.2797 32.5357 84.217 33.0501C84.1166 33.8156 83.6649 34.6061 82.7614 36.1746C81.8579 37.7432 81.4062 38.5337 80.7913 38.998C80.3898 39.3117 79.9255 39.5376 79.4361 39.6631C78.9467 39.8011 78.4322 39.8262 77.9178 39.7634C77.4535 39.7007 76.9767 39.5125 76.3241 39.1611C75.8599 38.9101 75.3328 38.7721 74.7933 38.7721" stroke="#8A8E8F" stroke-width="2" stroke-linecap="round"></path>
  <path d="M53.11 22.0703H31V75.1242H53.3986M67.7538 36.438L53.0974 22.0703V36.438H67.7538ZM67.7538 36.438V54.7835" stroke="#333333" stroke-width="2" stroke-linecap="round" stroke-linejoin="round"></path>
  <path d="M82.1215 52.2741L83.7904 53.7547L65.9217 73.9323H64.4285L64.2528 72.4516L82.1215 52.2741ZM82.0462 50.2036C81.5694 50.2036 81.1176 50.3793 80.7914 50.7432L62.1572 71.7991L62.6592 75.9401H66.8252L85.4718 54.8841C86.1118 54.1563 85.9612 52.9893 85.1456 52.2741L83.4265 50.7432C83.0124 50.3793 82.5105 50.2036 82.0336 50.2036H82.0462Z" fill="#F3921A"></path>
  <path d="M84.1667 56.3523L79.4988 52.2114L63.826 69.917L68.494 74.0579L84.1667 56.3523Z" fill="#F3921A"></path>
  <path d="M41.8416 59.2508L49.8599 46.1504L57.4014 59.2508H41.8416Z" stroke="#8A8E8F" stroke-width="2"></path>
</svg>
