<?xml version="1.0" encoding="UTF-8"?>
<svg xmlns="http://www.w3.org/2000/svg" width="100" height="100" viewBox="0 0 100 100" fill="none">
  <path d="M27.75 16H16C13.7909 16 12 17.7909 12 20V65C12 67.2091 13.7909 69 16 69H87C89.2091 69 91 67.2091 91 65V20C91 17.7909 89.2091 16 87 16H75.25" stroke="#333333" stroke-width="2" stroke-linecap="round"></path>
  <rect x="45" y="69" width="14" height="9" stroke="#333333" stroke-width="2"></rect>
  <path d="M34 82C34 79.7909 35.7909 78 38 78H66C68.2091 78 70 79.7909 70 82V83H34V82Z" stroke="#333333" stroke-width="2" stroke-linejoin="round"></path>
  <path d="M12 59H23" stroke="#333333" stroke-width="2" stroke-linecap="round"></path>
  <path d="M29 59H91" stroke="#333333" stroke-width="2" stroke-linecap="round"></path>
  <path d="M18 43L46 43" stroke="#8A8E8F" stroke-width="2" stroke-linecap="round"></path>
  <path d="M75 43L79 43" stroke="#8A8E8F" stroke-width="2" stroke-linecap="round"></path>
  <path d="M61 52L61 56" stroke="#8A8E8F" stroke-width="2" stroke-linecap="round"></path>
  <path d="M61 24L71 30.1622V43L61 36.8378V24Z" stroke="#8A8E8F" stroke-width="2" stroke-linejoin="round"></path>
  <path d="M51 30.3357L61 24V36.5L51 43V30.3357Z" stroke="#8A8E8F" stroke-width="2" stroke-linejoin="round"></path>
  <path d="M61 37L71 43L61 49L51 43.5033L61 37Z" stroke="#8A8E8F" stroke-width="2" stroke-linejoin="round"></path>
  <path d="M60.8605 20V4M60.8605 4L69 20M60.8605 4L55 13.0435" stroke="#333333" stroke-width="2" stroke-linecap="round"></path>
  <path d="M32.7866 14.5002H53.0871V25.3505L47.487 28.5006V34.8007H32.7866V14.5002Z" fill="#F3921A"></path>
</svg>
