<?xml version="1.0" encoding="UTF-8"?>
<svg xmlns="http://www.w3.org/2000/svg" width="100" height="100" viewBox="0 0 100 100" fill="none">
  <path d="M85 78.127C83.6422 78.9483 81.2156 79.9475 78.7215 79.9983C75.717 80.0491 73.4252 78.9568 72 78" stroke="#F3921A" stroke-width="2" stroke-miterlimit="10"></path>
  <path d="M58 78.127C56.6422 78.9483 54.2156 79.9475 51.7215 79.9983C48.717 80.0491 46.4252 78.9568 45 78" stroke="#F3921A" stroke-width="2" stroke-miterlimit="10"></path>
  <path d="M31 78.127C29.6422 78.9483 27.2156 79.9475 24.7215 79.9983C21.717 80.0491 19.4252 78.9568 18 78" stroke="#F3921A" stroke-width="2" stroke-miterlimit="10"></path>
  <path d="M68 84C68 79.5791 72.6981 76 78.5 76C84.3019 76 89 79.586 89 84" stroke="#333333" stroke-width="2" stroke-miterlimit="10" stroke-linecap="round"></path>
  <path d="M41 84C41 79.5791 45.6981 76 51.5 76C57.3019 76 62 79.586 62 84" stroke="#333333" stroke-width="2" stroke-miterlimit="10" stroke-linecap="round"></path>
  <path d="M14 84C14 79.5791 18.6981 76 24.5 76C30.3019 76 35 79.586 35 84" stroke="#333333" stroke-width="2" stroke-miterlimit="10" stroke-linecap="round"></path>
  <path d="M78.5 75C81.538 75 84 72.5383 84 69.5C84 66.4617 81.538 64 78.5 64C75.462 64 73 66.4617 73 69.5C73 72.5383 75.462 75 78.5 75Z" stroke="#333333" stroke-width="2" stroke-miterlimit="10"></path>
  <path d="M51.5 75C54.538 75 57 72.5383 57 69.5C57 66.4617 54.538 64 51.5 64C48.462 64 46 66.4617 46 69.5C46 72.5383 48.462 75 51.5 75Z" stroke="#333333" stroke-width="2" stroke-miterlimit="10"></path>
  <path d="M24.5 75C27.538 75 30 72.5383 30 69.5C30 66.4617 27.538 64 24.5 64C21.462 64 19 66.4617 19 69.5C19 72.5383 21.462 75 24.5 75Z" stroke="#333333" stroke-width="2" stroke-miterlimit="10"></path>
  <path d="M31.1718 20H30.1261C27.2965 20 25 22.2873 25 25.1055V44.8945C25 47.7127 27.2965 50 30.1261 50H69.8739C72.7035 50 75 47.7127 75 44.8945V25.1055C75 22.2873 72.7035 20 69.8739 20H67.1366" stroke="#8A8E8F" stroke-width="2" stroke-linecap="round" stroke-linejoin="round"></path>
  <path d="M25 45L50 45" stroke="#8A8E8F" stroke-width="2" stroke-linecap="round"></path>
  <path d="M35 58H65" stroke="#8A8E8F" stroke-width="2" stroke-linecap="round"></path>
  <path d="M53 37.9168L50.4873 28.8981L51.4045 27.1607C51.0414 27.0803 50.5637 27 50 27C49.4363 27 48.9682 27.0803 48.6051 27.1607C48.9108 27.7331 49.2261 28.3156 49.5223 28.878L47 37.9067L50 41L53 37.9067V37.9168Z" fill="#F3921A"></path>
  <path d="M50 24C53.8682 24 57 20.8618 57 17C57 13.1382 53.8682 10 50 10C46.1318 10 43 13.1382 43 17C43 20.8618 46.1318 24 50 24Z" stroke="#333333" stroke-width="2" stroke-miterlimit="10"></path>
  <path d="M36 40C36 31.7076 42.2699 25 50 25C57.7301 25 64 31.7176 64 40" stroke="#333333" stroke-width="2" stroke-miterlimit="10" stroke-linecap="round"></path>
  <rect x="46" y="50" width="8" height="8" stroke="#8A8E8F" stroke-width="2"></rect>
</svg>
