<?xml version="1.0" encoding="UTF-8"?>
<svg xmlns="http://www.w3.org/2000/svg" width="99" height="99" viewBox="0 0 99 99" fill="none">
  <circle cx="49.5" cy="49.5" r="49" transform="rotate(-90 49.5 49.5)" fill="white" stroke="#FFB13C"></circle>
  <path d="M49.3808 26H32.7646V31.4587M49.5977 65.8711H32.7646V53.6488M60.3859 36.7976L49.3713 26V36.7976H60.3859ZM60.3859 36.7976V50.5847" stroke="#333333" stroke-width="1.50304" stroke-linecap="round" stroke-linejoin="round"></path>
  <path d="M71.1842 48.6986L72.4384 49.8113L59.0097 64.9752H57.8875L57.7555 63.8624L71.1842 48.6986ZM71.1276 47.1426C70.7693 47.1426 70.4298 47.2746 70.1846 47.5481L56.1807 63.372L56.5579 66.484H59.6887L73.7021 50.66C74.183 50.1131 74.0699 49.2361 73.4569 48.6986L72.165 47.5481C71.8538 47.2746 71.4766 47.1426 71.1182 47.1426H71.1276Z" fill="#F3921A"></path>
  <path d="M72.721 51.7633L69.213 48.6514L57.4346 61.9574L60.9426 65.0695L72.721 51.7633Z" fill="#F3921A"></path>
  <path d="M38.2164 44.8786H31.2168L30.3839 46.8856C30.1111 47.5545 29.9747 48.107 29.9747 48.5428C29.9747 49.1206 30.1988 49.5463 30.6469 49.82C30.9099 49.9821 31.5578 50.1038 32.5904 50.1849V50.7474H26V50.1849C26.7112 50.0734 27.2957 49.7693 27.7535 49.2726C28.2114 48.7658 28.7765 47.7269 29.4486 46.1558L36.5359 29.7048H36.8135L43.9593 46.6119C44.6412 48.2134 45.2014 49.2219 45.6397 49.6375C45.971 49.9517 46.4386 50.1342 47.0426 50.1849V50.7474H37.4565V50.1849H37.8511C38.6207 50.1849 39.1614 50.0734 39.4731 49.8504C39.6874 49.6882 39.7946 49.4551 39.7946 49.151C39.7946 48.9685 39.7654 48.781 39.7069 48.5884C39.6874 48.4972 39.5413 48.1171 39.2685 47.4481L38.2164 44.8786ZM37.7195 43.7535L34.7677 36.6531L31.7283 43.7535H37.7195Z" fill="#8A8E8F"></path>
  <path d="M54.0286 50.6703V49.4833L53.9527 49.2305V47.1532C53.9527 46.7502 53.8333 46.4387 53.5947 46.2189C53.3561 45.9918 52.9945 45.8782 52.5101 45.8782C52.1847 45.8782 51.8629 45.9295 51.5447 46.0321C51.2338 46.1346 50.9698 46.2775 50.7529 46.4607L50.2214 45.4605C50.5323 45.2187 50.9011 45.0392 51.3278 44.922C51.7616 44.7974 52.21 44.7351 52.6728 44.7351C53.5116 44.7351 54.1587 44.9403 54.6143 45.3506C55.0771 45.7536 55.3085 46.3801 55.3085 47.2301V50.6703H54.0286ZM52.2063 50.7473C51.7725 50.7473 51.3928 50.674 51.0674 50.5275C50.742 50.3736 50.489 50.1647 50.3082 49.901C50.1346 49.6298 50.0479 49.3258 50.0479 48.9887C50.0479 48.659 50.1238 48.3622 50.2756 48.0984C50.4347 47.8346 50.6914 47.6258 51.0457 47.4719C51.4001 47.318 51.8701 47.2411 52.4558 47.2411H54.1371V48.1534H52.5534C52.0906 48.1534 51.7797 48.2303 51.6206 48.3842C51.4615 48.5307 51.382 48.7139 51.382 48.9337C51.382 49.1829 51.4796 49.3807 51.6749 49.5273C51.8701 49.6738 52.1413 49.7471 52.4884 49.7471C52.821 49.7471 53.1175 49.6701 53.3778 49.5163C53.6453 49.3624 53.837 49.1352 53.9527 48.8348L54.1804 49.6591C54.0503 50.0035 53.8153 50.271 53.4754 50.4615C53.1428 50.652 52.7198 50.7473 52.2063 50.7473Z" fill="#8A8E8F"></path>
</svg>
