<?xml version="1.0" encoding="UTF-8"?>
<svg xmlns="http://www.w3.org/2000/svg" width="100" height="100" viewBox="0 0 100 100" fill="none">
  <path d="M38 28L50 33.098V48L38 42.902V28Z" stroke="#F3921A" stroke-width="2" stroke-linejoin="round"></path>
  <path d="M54 54L66 59.098V74L54 68.902V54Z" stroke="#333333" stroke-width="2" stroke-linejoin="round"></path>
  <path d="M22 54L34 59.098V74L22 68.902V54Z" stroke="#8A8E8F" stroke-width="2" stroke-linejoin="round"></path>
  <path d="M50 33.098L62 28V42.902L50 48V33.098Z" stroke="#F3921A" stroke-width="2" stroke-linejoin="round"></path>
  <path d="M66 59.098L78 54V68.902L66 74V59.098Z" stroke="#333333" stroke-width="2" stroke-linejoin="round"></path>
  <path d="M34 59.098L46 54V68.902L34 74V59.098Z" stroke="#8A8E8F" stroke-width="2" stroke-linejoin="round"></path>
  <path d="M38 27L50 22L62 27L50 32L38 27Z" stroke="#F3921A" stroke-width="2" stroke-linejoin="round"></path>
  <path d="M54 53L66 48L78 53L66 58L54 53Z" stroke="#333333" stroke-width="2" stroke-linejoin="round"></path>
  <path d="M22 53L34 48L46 53L34 58L22 53Z" stroke="#8A8E8F" stroke-width="2" stroke-linejoin="round"></path>
</svg>
