<?xml version="1.0" encoding="UTF-8"?>
<svg xmlns="http://www.w3.org/2000/svg" width="95" height="95" viewBox="0 0 95 95" fill="none">
  <circle cx="47.5" cy="47.5" r="46.25" stroke="#F3921A"></circle>
  <rect x="49" y="47" width="20" height="20" stroke="#333333" stroke-width="2" stroke-linejoin="round"></rect>
  <rect x="37" y="23" width="20" height="20" stroke="#F3921A" stroke-width="2" stroke-linejoin="round"></rect>
  <rect x="25" y="47" width="20" height="20" stroke="#8A8E8F" stroke-width="2" stroke-linejoin="round"></rect>
  <path d="M30.4439 61L34.2239 52.6H35.7599L39.5519 61H37.9199L34.6679 53.428H35.2919L32.0519 61H30.4439ZM32.1839 59.056L32.6039 57.832H37.1399L37.5599 59.056H32.1839Z" fill="black"></path>
  <path d="M43.7759 37V28.6H50.3159V29.884H45.3119V31.948H47.7959C48.8039 31.948 49.5679 32.16 50.0879 32.584C50.6159 33 50.8799 33.608 50.8799 34.408C50.8799 35.232 50.5879 35.872 50.0039 36.328C49.4279 36.776 48.6119 37 47.5559 37H43.7759ZM45.3119 35.8H47.4719C48.0719 35.8 48.5279 35.684 48.8399 35.452C49.1519 35.22 49.3079 34.884 49.3079 34.444C49.3079 33.58 48.6959 33.148 47.4719 33.148H45.3119V35.8Z" fill="black"></path>
  <path d="M55.7114 61V52.6H59.4674C60.4114 52.6 61.1474 52.788 61.6754 53.164C62.2034 53.532 62.4674 54.064 62.4674 54.76C62.4674 55.448 62.2154 55.98 61.7114 56.356C61.2074 56.724 60.5434 56.908 59.7194 56.908L59.9354 56.476C60.8714 56.476 61.5954 56.664 62.1074 57.04C62.6194 57.416 62.8754 57.96 62.8754 58.672C62.8754 59.4 62.6074 59.972 62.0714 60.388C61.5354 60.796 60.7434 61 59.6954 61H55.7114ZM57.2474 59.8H59.6474C60.1914 59.8 60.6034 59.7 60.8834 59.5C61.1634 59.292 61.3034 58.976 61.3034 58.552C61.3034 58.128 61.1634 57.82 60.8834 57.628C60.6034 57.428 60.1914 57.328 59.6474 57.328H57.2474V59.8ZM57.2474 56.188H59.3354C59.8394 56.188 60.2234 56.088 60.4874 55.888C60.7514 55.68 60.8834 55.384 60.8834 55C60.8834 54.6 60.7514 54.3 60.4874 54.1C60.2234 53.9 59.8394 53.8 59.3354 53.8H57.2474V56.188Z" fill="black"></path>
</svg>
