<?xml version="1.0" encoding="UTF-8"?>
<svg xmlns="http://www.w3.org/2000/svg" width="99" height="99" viewBox="0 0 99 99" fill="none">
  <circle cx="49.5" cy="49.5" r="49" transform="rotate(-90 49.5 49.5)" fill="white" stroke="#FFB13C"></circle>
  <path d="M75.0665 64.9596C74.0708 65.5619 72.2912 66.2946 70.4623 66.3319C68.259 66.3691 66.5783 65.5681 65.5332 64.8665" stroke="#F3921A" stroke-width="1.46666" stroke-miterlimit="10"></path>
  <path d="M55.2657 64.9596C54.27 65.5619 52.4905 66.2946 50.6615 66.3319C48.4582 66.3691 46.7776 65.5681 45.7324 64.8665" stroke="#F3921A" stroke-width="1.46666" stroke-miterlimit="10"></path>
  <path d="M35.4669 64.9596C34.4712 65.5619 32.6916 66.2946 30.8627 66.3319C28.6594 66.3691 26.9787 65.5681 25.9336 64.8665" stroke="#F3921A" stroke-width="1.46666" stroke-miterlimit="10"></path>
  <path d="M62.5996 69.2663C62.5996 66.0243 66.0449 63.3997 70.2996 63.3997C74.5543 63.3997 77.9995 66.0294 77.9995 69.2663" stroke="#333333" stroke-width="1.46666" stroke-miterlimit="10" stroke-linecap="round"></path>
  <path d="M42.7998 69.2663C42.7998 66.0243 46.2451 63.3997 50.4998 63.3997C54.7545 63.3997 58.1997 66.0294 58.1997 69.2663" stroke="#333333" stroke-width="1.46666" stroke-miterlimit="10" stroke-linecap="round"></path>
  <path d="M23 69.2663C23 66.0243 26.4452 63.3997 30.7 63.3997C34.9547 63.3997 38.3999 66.0294 38.3999 69.2663" stroke="#333333" stroke-width="1.46666" stroke-miterlimit="10" stroke-linecap="round"></path>
  <path d="M70.2999 62.6665C72.5278 62.6665 74.3332 60.8612 74.3332 58.6332C74.3332 56.4051 72.5278 54.5999 70.2999 54.5999C68.0721 54.5999 66.2666 56.4051 66.2666 58.6332C66.2666 60.8612 68.0721 62.6665 70.2999 62.6665Z" stroke="#333333" stroke-width="1.46666" stroke-miterlimit="10"></path>
  <path d="M50.5001 62.6665C52.728 62.6665 54.5334 60.8612 54.5334 58.6332C54.5334 56.4051 52.728 54.5999 50.5001 54.5999C48.2723 54.5999 46.4668 56.4051 46.4668 58.6332C46.4668 60.8612 48.2723 62.6665 50.5001 62.6665Z" stroke="#333333" stroke-width="1.46666" stroke-miterlimit="10"></path>
  <path d="M30.6993 62.6665C32.9272 62.6665 34.7326 60.8612 34.7326 58.6332C34.7326 56.4051 32.9272 54.5999 30.6993 54.5999C28.4715 54.5999 26.666 56.4051 26.666 58.6332C26.666 60.8612 28.4715 62.6665 30.6993 62.6665Z" stroke="#333333" stroke-width="1.46666" stroke-miterlimit="10"></path>
  <path d="M51.5992 39.4724L49.7565 32.8588L50.4291 31.5846C50.1629 31.5257 49.8126 31.4668 49.3992 31.4668C48.9858 31.4668 48.6425 31.5257 48.3763 31.5846C48.6005 32.0044 48.8317 32.4316 49.0489 32.844L47.1992 39.465L49.3992 41.7334L51.5992 39.465V39.4724Z" fill="#F3921A"></path>
  <path d="M49.3999 29.2666C52.2366 29.2666 54.5332 26.9652 54.5332 24.1333C54.5332 21.3014 52.2366 19 49.3999 19C46.5633 19 44.2666 21.3014 44.2666 24.1333C44.2666 26.9652 46.5633 29.2666 49.3999 29.2666Z" stroke="#333333" stroke-width="1.46666" stroke-miterlimit="10"></path>
  <path d="M39.1328 40.9999C39.1328 34.9189 43.7307 30 49.3994 30C55.0682 30 59.666 34.9262 59.666 40.9999" stroke="#333333" stroke-width="1.46666" stroke-miterlimit="10" stroke-linecap="round"></path>
</svg>
